# xmcd CD database file
#
# Track frame offsets:
#	183
#	22033
#	56833
#	91908
#	138420
#	168933
#
# Disc length: 2481 seconds
#
# Revision: 0
# Processed by: cddbd v1.4PL0 Copyright (c) Steve Scherf et al.
# Submitted via: CDex 1.50Beta5
#
DISCID=4a09af06
DTITLE=Woody Herman - Live In Seattle
DYEAR=1967
DGENRE=Jazz
TTITLE0=Hush
TTITLE1=Watermelon Man
TTITLE2=Greasy Sack Blues
TTITLE3=Jumpin' Blue
TTITLE4=Make Someone Happy
TTITLE5=Four Brothers
EXTD=YEAR: 1967
EXTT0=
EXTT1=
EXTT2=
EXTT3=
EXTT4=
EXTT5=
PLAYORDER=
